HIERARCHY
ROOT Hips
{
	OFFSET -14.64140 90.27770 -84.91600
	CHANNELS 6 Xposition Yposition Zposition Zrotation Xrotation Yrotation
	JOINT Spine
	{
		OFFSET 0.00000 13.20850 -1.60436
		CHANNELS 3 Zrotation Xrotation Yrotation
		JOINT Spine1
		{
			OFFSET 0.00000 8.61716 0.00000
			CHANNELS 3 Zrotation Xrotation Yrotation
			JOINT Spine2
			{
				OFFSET 0.00000 8.61717 0.00000
				CHANNELS 3 Zrotation Xrotation Yrotation
				JOINT Spine3
				{
					OFFSET 0.00000 8.61717 0.00000
					CHANNELS 3 Zrotation Xrotation Yrotation
					JOINT Neck
					{
						OFFSET 0.00000 11.07920 1.10792
						CHANNELS 3 Zrotation Xrotation Yrotation
						JOINT Neck1
						{
							OFFSET 0.00000 7.08032 0.00000
							CHANNELS 3 Zrotation Xrotation Yrotation
							JOINT Head
							{
								OFFSET 0.00000 7.08031 0.00000
								CHANNELS 3 Zrotation Xrotation Yrotation
								End site
								{
									OFFSET 0.00000 0.00000 0.00000
								}
							}
						}
					}
					JOINT RightShoulder
					{
						OFFSET -0.01000 7.91373 5.19711
						CHANNELS 3 Zrotation Xrotation Yrotation
						JOINT RightArm
						{
							OFFSET -18.41580 0.00000 0.00000
							CHANNELS 3 Zrotation Xrotation Yrotation
							JOINT RightForeArm
							{
								OFFSET -29.11090 0.00000 0.00000
								CHANNELS 3 Zrotation Xrotation Yrotation
								JOINT RightHand
								{
									OFFSET -24.65040 0.00000 0.00000
									CHANNELS 3 Zrotation Xrotation Yrotation
									JOINT RightHandThumb1
									{
										OFFSET -5.35114 -0.85590 3.97906
										CHANNELS 3 Zrotation Xrotation Yrotation
										JOINT RightHandThumb2
										{
											OFFSET -4.52789 0.00000 0.00000
											CHANNELS 3 Zrotation Xrotation Yrotation
											JOINT RightHandThumb3
											{
												OFFSET -2.46976 0.00000 0.00000
												CHANNELS 3 Zrotation Xrotation Yrotation
												End site
												{
													OFFSET 0.00000 0.00000 0.00000
												}
											}
										}
									}
									JOINT RightHandIndex1
									{
										OFFSET -14.26970 0.00000 2.88139
										CHANNELS 3 Zrotation Xrotation Yrotation
										JOINT RightHandIndex2
										{
											OFFSET -5.48836 0.00000 0.00000
											CHANNELS 3 Zrotation Xrotation Yrotation
											JOINT RightHandIndex3
											{
												OFFSET -3.01859 0.00000 0.00000
												CHANNELS 3 Zrotation Xrotation Yrotation
												End site
												{
													OFFSET 0.00000 0.00000 0.00000
												}
											}
										}
									}
									JOINT RightHandMiddle1
									{
										OFFSET -14.26970 0.00000 -0.09147
										CHANNELS 3 Zrotation Xrotation Yrotation
										JOINT RightHandMiddle2
										{
											OFFSET -6.17441 0.00000 0.00000
											CHANNELS 3 Zrotation Xrotation Yrotation
											JOINT RightHandMiddle3
											{
												OFFSET -3.56743 0.00000 0.00000
												CHANNELS 3 Zrotation Xrotation Yrotation
												End site
												{
													OFFSET 0.00000 0.00000 0.00000
												}
											}
										}
									}
									JOINT RightHandRing1
									{
										OFFSET -12.69180 0.00000 -3.06433
										CHANNELS 3 Zrotation Xrotation Yrotation
										JOINT RightHandRing2
										{
											OFFSET -5.62556 0.00000 0.00000
											CHANNELS 3 Zrotation Xrotation Yrotation
											JOINT RightHandRing3
											{
												OFFSET -3.56744 0.00000 0.00000
												CHANNELS 3 Zrotation Xrotation Yrotation
												End site
												{
													OFFSET 0.00000 0.00000 0.00000
												}
											}
										}
									}
									JOINT RightHandPinky1
									{
										OFFSET -11.11390 0.00000 -6.03719
										CHANNELS 3 Zrotation Xrotation Yrotation
										JOINT RightHandPinky2
										{
											OFFSET -4.52789 0.00000 0.00000
											CHANNELS 3 Zrotation Xrotation Yrotation
											JOINT RightHandPinky3
											{
												OFFSET -2.46976 0.00000 0.00000
												CHANNELS 3 Zrotation Xrotation Yrotation
												End site
												{
													OFFSET 0.00000 0.00000 0.00000
												}
											}
										}
									}
								}
							}
						}
					}
					JOINT LeftShoulder
					{
						OFFSET 0.01000 7.91373 5.19711
						CHANNELS 3 Zrotation Xrotation Yrotation
						JOINT LeftArm
						{
							OFFSET 18.41580 0.00000 0.00000
							CHANNELS 3 Zrotation Xrotation Yrotation
							JOINT LeftForeArm
							{
								OFFSET 29.11090 0.00000 0.00000
								CHANNELS 3 Zrotation Xrotation Yrotation
								JOINT LeftHand
								{
									OFFSET 24.65040 0.00000 0.00000
									CHANNELS 3 Zrotation Xrotation Yrotation
									JOINT LeftHandThumb1
									{
										OFFSET 5.35114 -0.85590 3.97906
										CHANNELS 3 Zrotation Xrotation Yrotation
										JOINT LeftHandThumb2
										{
											OFFSET 4.52789 0.00000 0.00000
											CHANNELS 3 Zrotation Xrotation Yrotation
											JOINT LeftHandThumb3
											{
												OFFSET 2.46977 0.00000 0.00000
												CHANNELS 3 Zrotation Xrotation Yrotation
												End site
												{
													OFFSET 0.00000 0.00000 0.00000
												}
											}
										}
									}
									JOINT LeftHandIndex1
									{
										OFFSET 14.26970 0.00000 2.88139
										CHANNELS 3 Zrotation Xrotation Yrotation
										JOINT LeftHandIndex2
										{
											OFFSET 5.48836 0.00000 0.00000
											CHANNELS 3 Zrotation Xrotation Yrotation
											JOINT LeftHandIndex3
											{
												OFFSET 3.01859 0.00000 0.00000
												CHANNELS 3 Zrotation Xrotation Yrotation
												End site
												{
													OFFSET 0.00000 0.00000 0.00000
												}
											}
										}
									}
									JOINT LeftHandMiddle1
									{
										OFFSET 14.26970 0.00000 -0.09147
										CHANNELS 3 Zrotation Xrotation Yrotation
										JOINT LeftHandMiddle2
										{
											OFFSET 6.17440 0.00000 0.00000
											CHANNELS 3 Zrotation Xrotation Yrotation
											JOINT LeftHandMiddle3
											{
												OFFSET 3.56744 0.00000 0.00000
												CHANNELS 3 Zrotation Xrotation Yrotation
												End site
												{
													OFFSET 0.00000 0.00000 0.00000
												}
											}
										}
									}
									JOINT LeftHandRing1
									{
										OFFSET 12.69180 0.00000 -3.06433
										CHANNELS 3 Zrotation Xrotation Yrotation
										JOINT LeftHandRing2
										{
											OFFSET 5.62556 0.00000 0.00000
											CHANNELS 3 Zrotation Xrotation Yrotation
											JOINT LeftHandRing3
											{
												OFFSET 3.56744 0.00000 0.00000
												CHANNELS 3 Zrotation Xrotation Yrotation
												End site
												{
													OFFSET 0.00000 0.00000 0.00000
												}
											}
										}
									}
									JOINT LeftHandPinky1
									{
										OFFSET 11.11390 0.00000 -6.03719
										CHANNELS 3 Zrotation Xrotation Yrotation
										JOINT LeftHandPinky2
										{
											OFFSET 4.52789 0.00000 0.00000
											CHANNELS 3 Zrotation Xrotation Yrotation
											JOINT LeftHandPinky3
											{
												OFFSET 2.46976 0.00000 0.00000
												CHANNELS 3 Zrotation Xrotation Yrotation
												End site
												{
													OFFSET 0.00000 0.00000 0.00000
												}
											}
										}
									}
								}
							}
						}
					}
					JOINT pCube4
					{
						OFFSET 0.00000 10.91090 1.10792
						CHANNELS 3 Zrotation Xrotation Yrotation
						End site
						{
							OFFSET 0.00000 0.00000 0.00000
						}
					}
				}
			}
		}
	}
	JOINT RightUpLeg
	{
		OFFSET -9.98441 0.00000 0.00000
		CHANNELS 3 Zrotation Xrotation Yrotation
		JOINT RightLeg
		{
			OFFSET 0.00000 -42.11790 0.00000
			CHANNELS 3 Zrotation Xrotation Yrotation
			JOINT RightFoot
			{
				OFFSET 0.00000 -45.00020 -0.00001
				CHANNELS 3 Zrotation Xrotation Yrotation
				JOINT RightForeFoot
				{
					OFFSET 0.00000 -3.74820 0.00000
					CHANNELS 3 Zrotation Xrotation Yrotation
					JOINT RightToeBase
					{
						OFFSET 0.00000 0.06325 14.43120
						CHANNELS 3 Zrotation Xrotation Yrotation
						End site
						{
							OFFSET 0.00000 0.00000 0.00000
						}
					}
				}
			}
		}
	}
	JOINT LeftUpLeg
	{
		OFFSET 9.98441 0.00000 0.00000
		CHANNELS 3 Zrotation Xrotation Yrotation
		JOINT LeftLeg
		{
			OFFSET 0.00000 -42.11800 0.00000
			CHANNELS 3 Zrotation Xrotation Yrotation
			JOINT LeftFoot
			{
				OFFSET 0.00000 -45.00070 0.00000
				CHANNELS 3 Zrotation Xrotation Yrotation
				JOINT LeftForeFoot
				{
					OFFSET 0.00000 -3.74824 0.00000
					CHANNELS 3 Zrotation Xrotation Yrotation
					JOINT LeftToeBase
					{
						OFFSET 0.00000 0.06325 14.43110
						CHANNELS 3 Zrotation Xrotation Yrotation
						End site
						{
							OFFSET 0.00000 0.00000 0.00000
						}
					}
				}
			}
		}
	}
}
MOTION
Frames: 4
Frame Time: 0.050000
0.005348213860999188 4.900903354704352e-05 0.013179005865473721 -0.03633457898707514 -0.012549041063688305 -0.014738689955032518 5.143166585511894 3.1486426925122104 -2.207213807902257 -0.855644760990906 3.40095177062902 0.3769712468400493 -0.7785273954951778 -0.9219384672773758 0.7876817688923882 -0.5064189465364901 -0.2606698000244522 -0.2695170085889651 0.22372005378350132 11.347606325702538 -1.5702075229131152 0.35810133639484293 -0.6727905490233944 -3.8959424436995085 1.0938791156629293 -17.393709485297183 -0.43397009175852946 -11.819496785411403 4.000492183571218 -16.553190775647018 80.70045508087368 -1.5880761231324942 13.982847754775628 23.364568450271083 1.37081849042688 83.34271359181798 9.701870265485907 -0.4821628934454916 -5.366193896713663 4.5242846262827925 -0.07929030208869217 -1.6392090441057616 -0.011591951876709021 -0.022201375536940918 -56.27563250404828 -0.004295656231043225 0.020505301738927284 -56.204016043650775 -38.76049971876921 -0.01951885925547177 0.0090247470345327 -0.027414974385193757 -0.031027676326191238 -0.00879936042760598 -0.0050337372267659115 0.013178333441814013 0.028021602119548336 -36.653436946806 -0.03117799960219374 0.013228422437414346 -0.0303331102130457 -0.012813308277806565 0.009989783508236065 0.040173235074249296 0.01279718472533698 -0.023174775397690965 -19.72434354747073 -0.019809694879612025 0.0437073398006721 0.008675444305538075 0.014624370965856618 -0.009264644827713716 0.04825491510693305 -0.025881092764847683 -0.02966246097609478 24.032490648346105 -0.035928622160429274 -0.007074564205657308 28.888127558170204 -0.045738102194467674 0.029522550047249466 28.848808197864663 0.01682675586010244 -0.035159923565319745 10.869507880152838 2.5610802473206515 13.501018688512213 -78.93448616438599 17.710196305255668 -13.28250677048645 -69.41450464626261 11.851958109646061 -95.33540179797585 -8.130938796510732 -9.30477677225449 5.9789031647774875 -0.5137472480777907 0.052278852730538214 -8.10099426670271 0.03895104423787097 0.03689521243668679 44.54467989708606 0.036538703166862765 0.032685987523012563 44.59264239198076 12.473303663910764 0.047492303683308354 0.04389394692566662 -0.0015673718602916672 -0.0039853217982325495 -0.03665251047128189 0.02832531049100987 0.02910868660281836 0.045501894758049354 11.117616359222296 0.022493370343995876 0.042334136512256634 -0.04404766525072208 -0.045168014689277294 0.021214106254038315 -0.0007157105813303151 -0.014460394799474465 0.006733526890279086 4.794470395405269 -0.03981231546902615 0.0004578819347114891 0.030545658528401826 0.02309851194648146 0.026731382990217677 -0.02496936612607295 0.03844369911394811 0.0014573570910498624 -5.601386654360765 0.031838256087166956 -0.01850306817438638 -6.683504662507303 -0.03916422079660615 -0.019852848967087822 -6.750100793018086 -0.035203804339362835 -0.028986064447305136 0.033544954303914895 0.037457138593107266 0.04002873686629911 8.050518533818014 3.472777199373593 -19.22530361884681 -0.028025402850426505 10.346699753828181 -0.009199909686313835 -5.643563548495747 -15.629517951291463 3.155219518914327 0.023586401202783998 -0.020240868108075263 0.042787897332546516 -0.014638549540352278 4.742941534378066 0.03832779970527279 12.488952809951675 -8.234484099857696 6.842333690432879 -0.011497565809145927 46.41005437944516 -0.01847845425404429 -4.279021982376652 -14.728032758924453 -3.855906594520437 0.044654634607942494 0.021050309360476725 -0.03725645641101187 -0.006252099788182819 -10.762014763860167 -0.0299930538115917 
0.013715102624461996 -0.006731305111315477 0.031469243539296164 0.028791083318261326 0.001023482181991412 -0.02463407580160901 5.1184103873066595 3.253807683570625 -2.2123768985966494 -0.8992846319724036 3.381941531906301 0.46538805052726046 -0.7683388511580245 -0.8840847359152617 0.7523491436741467 -0.4491945640256229 -0.3229355841403331 -0.35961392305017953 0.2618498766122451 11.210248501792899 -1.6798225751674618 0.39036313208201023 -0.7946488531311673 -4.128371064632921 1.1164117856815425 -17.43469568083018 -0.4026172743855329 -11.719115180522342 4.0535953221022405 -16.599595101131605 81.08030861923226 -2.1683564351727282 13.020104026549177 23.60179200018297 1.5216196918143885 82.26454768456261 9.867237471417473 -0.4772544559504429 -5.5368732019483895 4.560707854526885 -0.09515669422864903 -1.5688437317220378 0.0033636130261644834 -0.030784277110515824 -56.2738691334157 -0.029934408781843513 0.038845162146511944 -56.189133199037464 -38.786261469883975 0.028512886097861602 -0.04536384558559162 -0.014667940712895407 -0.025223481995446568 0.015545357121335597 0.03572810793967505 -0.02214679455981206 -0.007909957296192316 -36.665815856208496 -0.005042453478565603 -0.018315364111336375 -0.03046490111834689 0.012067632477944002 -0.01108292461000339 -0.027021456846638377 0.001958150782363646 -0.005573366659587653 -19.781264786904025 0.005675280035499337 0.01923756877349014 0.0033621332487261753 -0.01887623637912762 0.03644689154584479 -0.016448624023792394 0.03764089895694707 -0.0280182762554227 24.041783351824368 -0.04228440367843356 -0.045654501731214554 28.891124724205678 0.04147767135548279 -0.041617988150261936 28.914044713147508 -0.014906163034108693 -0.002717626567330491 10.657598612837344 2.5234653069197517 13.4951751445535 -79.16362170323535 17.28573947617836 -12.915391261269598 -71.70324742538496 11.856909419327334 -96.08425223591338 -8.056853173377785 -9.736391200833344 6.2043635450076655 -0.45740961322815016 0.05198810758343773 -8.075850124590529 -0.016596623822968868 0.02792439234241618 44.535987099761165 0.014571561959624127 0.04522214390897666 44.56123409141578 12.447418318114545 0.04018895390155219 -0.03226082725911886 -0.02681475402548333 0.03635123657988493 -0.03272214296206838 0.009649061323639381 -0.019827588531152494 0.009238937808075732 11.128886663233072 0.04846925650734099 0.004641385160074249 0.020221833635931715 -0.025732585989155756 0.006232672572619762 -0.03944606869107614 -0.013916479233284169 -0.0013371620817876698 4.76252726098808 0.004693846778241436 0.008136513180986944 -0.03896236437369916 0.023375876269067817 0.007260737556792807 0.03389237734902429 0.02161324821236926 -0.01677253648961843 -5.5618166520762236 0.005705444752727634 -0.014731933618799048 -6.693832905752619 -0.03196728121486628 -0.00012473908577434153 -6.76330154258071 -0.005657843420643511 0.03484616977373511 -0.0006847575793845962 0.023452001526631225 0.00864190068777951 8.03923644625202 3.5272447042862356 -19.20591209614625 0.03986625910505067 10.43810529629906 -0.01591201244219456 -5.631228297494185 -15.680483020415508 3.2024496921493526 -0.032218699821531874 -0.002763254193600775 -0.017872997847941094 0.015433257167183072 4.710607900415221 0.03296624839758391 12.453352410665337 -8.234366334449971 6.839641349517692 0.0023862712538360825 46.37050696351406 0.04665409922319392 -4.362156179790562 -14.774424336678713 -3.821224846240656 0.004263383461333404 0.01028517916574454 -0.028498810105633317 -0.03337620567159353 -10.70629639911351 0.013975482914136772 
-0.018326774374187626 0.022384606244988493 0.020407983481100716 -0.03561556084333544 0.040001879600859276 -0.04778681347232627 5.160489506003495 3.209375949981827 -2.2571995603205615 -0.8819202849960097 3.4034280419757312 0.38242505650876907 -0.7433147349248855 -0.8706241527818387 0.6592170050506615 -0.4276916494128976 -0.31692552591306444 -0.3599330538211957 0.2571027010599877 11.116872768261773 -1.725437003666765 0.40455942009782553 -0.7453113383085994 -4.2173306958892045 1.1267490763933306 -17.441146186276622 -0.3936219228616333 -11.544054828044437 3.997421975449145 -16.72341883441981 81.36920387520993 -2.020447012077905 11.660388906891747 23.585944057093865 1.5706726256692216 81.90820997956905 9.96378539667738 -0.4645572000784026 -5.735928063571546 4.567555336487854 -0.09470249214652282 -1.5951465979556168 0.009999033305532553 0.005180978572015471 -56.24049566681879 -0.02382337630113725 0.014359481562413502 -56.2019081305009 -38.74834744122333 0.0305888883883445 0.023915775171075848 -0.022906130255574853 -0.016914302420365113 -0.0025092933476385613 0.0146635911597135 0.04709772619463343 -0.030889653428009475 -36.662100233298986 0.028670731625962006 0.0016324104696391131 0.01142518012233885 0.01867386152710061 -0.035491879820847665 0.03440694107100936 0.0035170939790645657 0.041370262233695096 -19.776387751762112 0.008259012020748477 0.01794313654566973 0.022759915534032883 0.04266624376257856 0.02263395888705639 0.048135112407830936 0.03656205793956088 0.010081133947789183 24.05980113165615 -0.00039192854927481405 -0.004518591273984557 28.87442198874506 0.042655563887922576 0.0316098832756916 28.901182789163695 0.0022763879093621216 0.037257969457032615 10.658757723372377 2.5720660215281876 13.547490324448344 -79.3690498900885 17.07802339209527 -12.304145565281738 -73.96869976342451 11.66213159555447 -97.36470139185703 -8.52938511145523 -10.44929016037884 6.572916448668216 -0.477283881563088 0.03029720487331971 -8.086832194296028 -0.019820336430561275 -0.014349838237737958 44.52822083070803 -0.030520948022729717 0.027031861344690194 44.61384787929734 12.436335912646978 0.018964956593053323 -0.012276011782190557 -0.03680307995408845 -0.0012460569257927271 -0.03345689539363847 0.011869927968505034 0.028013981379703748 0.035574653339874605 11.086800292114798 -0.00447087946593463 0.0022646449953833987 -0.02003809150896833 0.010900006984851957 -0.011958048618913242 0.03592163607242276 0.021527849397978294 -0.013782317969973099 4.758057204716453 -0.03241680409997374 -0.009429601345886999 -0.0023253019964461887 0.044109919043876074 -0.03197938680928438 -0.024323368615571925 -0.0016841466928691267 -0.02852781347864969 -5.576422734646903 -0.002382178708344157 -0.007823644047526666 -6.691049741184025 -0.03217360335836402 0.04626747746964871 -6.754729461059501 0.04273539741048623 -0.03966746658390481 -0.0124316994185618 0.04127910619645821 0.008155435359978131 8.014616964339172 3.511343948796643 -19.186826053656723 -0.003857025126662036 10.419380081039677 0.056265754489502634 -5.6253789020280625 -15.645384167884957 3.165417333788064 -0.03294821194682007 -0.0307594671313484 0.01325200144875327 0.015547321360068164 4.661387367000133 -0.039500541667245696 12.47229298531868 -8.200805547390548 6.925568483094765 0.019625557922635144 46.3751645417378 0.025810965833468254 -4.327327766235136 -14.779560315009157 -3.7957098038797454 0.046551408176148765 0.0012287307031089813 0.02109192659610439 -0.03840102958243712 -10.734796994023773 0.035270828142085014 
0.008978789874987694 -0.0006435943110209581 -0.0179378151860233 0.043771787611704985 -0.028343310719122928 0.012548366688272902 5.356772329328376 3.030695105753847 -2.2284888277383605 -0.8718391446879953 3.3549785522921467 0.3835541972303918 -0.752266242033969 -0.9232494104836513 0.6977265126705399 -0.429596424973513 -0.32495192077514434 -0.27897420011592716 0.2525032300626805 11.157340119223646 -1.7426770863436858 0.3703013671748223 -0.7524917648488477 -4.050224132386029 1.0284320329955186 -17.476841325631018 -0.4020612758460963 -11.374522174909242 3.884279855300377 -17.037307087602596 82.00420614173828 -1.9999915635986985 9.703857010394971 22.94862735895501 1.2848674310996935 81.73288688698047 9.685418943069976 -0.5083534542902386 -5.711154120947332 4.5683765970496015 -0.15183442705093964 -1.5783466208912826 -0.02406650593234515 -0.030565920339859318 -56.23545608009136 0.0158580671490658 0.035157918237374304 -56.22587021761325 -38.781912213931605 -0.03223556831008646 -0.04411793326131881 -0.028828629188849417 -0.00834645661674235 -0.007880724149573914 -0.02798084154174149 -0.028052061985255457 0.011234831759092524 -36.74210664834522 0.017389252223272724 0.015436452524673282 -0.042515614365990335 -0.015574394674284488 -0.04428581223379205 0.012106168604847003 0.01646581662408937 -0.004744124095581376 -19.782119098633657 -0.03400306385249156 -0.04154582253007859 -0.03708169217514477 0.004416903466254369 -0.033236379385532595 0.006578789927465314 0.04129718575186747 -0.0455797804780935 24.050535913368073 0.000786796923890608 0.03661806701063805 28.89543492998541 0.048925653958692326 0.016974978562839922 28.90443330967717 -0.049210608205581104 0.006898930440190327 10.617533059674033 2.5134100423534784 13.877641815377388 -79.8466094570463 16.278352500701185 -11.332517806083088 -76.75159677654482 11.180623805865627 -98.70705737108997 -8.733680607539723 -11.22497218187979 6.68862521548197 -0.509082716167726 0.0817129551673326 -8.092220136090566 -0.03553004807340719 0.04431085370735766 44.560191311760825 -0.049189551347410584 -0.03923968269930067 44.584246598835314 12.427634490327945 0.0022171287105815654 -0.02252460750154431 -0.0025344334157949245 -0.03226608647911202 0.038136852851549496 -0.018880045934342008 0.01608391108060591 0.03994768586352351 11.128118571898465 0.003221529122804415 0.018368466900326695 0.038383496950078165 0.033915213422920705 -0.006779011065381706 0.014096740802407816 -0.028954658876223806 -0.04571743619748658 4.771760782993946 -0.027603384476376624 0.00420733617062603 0.0074944621561718 -0.03474741306013149 0.034592645464018607 0.029010930193658566 0.0437154560976947 -0.012386081867827421 -5.583924310440606 0.004054503336802566 -0.0438837577199826 -6.679547486316222 -0.008495717172489356 -0.03934121397939899 -6.738176646781178 0.047691407122588764 -0.020827036900536503 -0.01214857880499127 -0.013585312142449651 0.03770741851442874 8.043600999527287 3.4987036753152743 -19.19426913758073 -0.04960174382405689 10.363545293659596 0.0031740170486088057 -5.574356111497263 -15.669875899405554 3.1680049991419144 -0.03458866735411481 0.016793968204634257 0.005454491151712177 -0.025337510299578026 4.685281390388475 -0.007957261509356599 12.429625406576227 -8.249807969332092 6.894135722730522 0.01686631442232228 46.3572464081894 -0.02955088234605531 -4.318129785249529 -14.768486970304345 -3.847601008708149 -0.04534310790547569 0.009076552000639079 -0.020405276628797278 0.0418223898545469 -10.73252675569156 0.03605266174304666 
